<mxfile host="65bd71144e">
    <diagram id="HF1zOMWUqIMAiC5Xxc_R" name="Page-1">
        <mxGraphModel dx="1449" dy="846" grid="1" gridSize="10" guides="1" tooltips="1" connect="1" arrows="1" fold="1" page="1" pageScale="1" pageWidth="1327" pageHeight="1169" math="0" shadow="0">
            <root>
                <mxCell id="0"/>
                <mxCell id="1" parent="0"/>
                <mxCell id="56" value="Start" style="whiteSpace=wrap;strokeWidth=2;" vertex="1" parent="1">
                    <mxGeometry x="2491" y="320" width="95" height="48" as="geometry"/>
                </mxCell>
                <mxCell id="57" value="Visa huvudmeny" style="whiteSpace=wrap;strokeWidth=2;" vertex="1" parent="1">
                    <mxGeometry x="2451" y="418" width="177" height="48" as="geometry"/>
                </mxCell>
                <mxCell id="58" value="Registrera försäljning" style="whiteSpace=wrap;strokeWidth=2;" vertex="1" parent="1">
                    <mxGeometry x="500" y="517" width="213" height="48" as="geometry"/>
                </mxCell>
                <mxCell id="59" value="Ange kassörens namn" style="whiteSpace=wrap;strokeWidth=2;" vertex="1" parent="1">
                    <mxGeometry x="380" y="615" width="213" height="48" as="geometry"/>
                </mxCell>
                <mxCell id="60" value="Välj produkt ID" style="whiteSpace=wrap;strokeWidth=2;" vertex="1" parent="1">
                    <mxGeometry x="643" y="615" width="169" height="48" as="geometry"/>
                </mxCell>
                <mxCell id="61" value="Validera produkt" style="whiteSpace=wrap;strokeWidth=2;" vertex="1" parent="1">
                    <mxGeometry x="637" y="722" width="180" height="48" as="geometry"/>
                </mxCell>
                <mxCell id="62" value="Ange såld kvantitet" style="whiteSpace=wrap;strokeWidth=2;" vertex="1" parent="1">
                    <mxGeometry x="584" y="861" width="199" height="48" as="geometry"/>
                </mxCell>
                <mxCell id="63" value="Visa felmeddelande och be om nytt ID" style="whiteSpace=wrap;strokeWidth=2;" vertex="1" parent="1">
                    <mxGeometry x="860" y="852" width="254" height="66" as="geometry"/>
                </mxCell>
                <mxCell id="64" value="Validera kvantitet" style="whiteSpace=wrap;strokeWidth=2;" vertex="1" parent="1">
                    <mxGeometry x="589" y="999" width="189" height="48" as="geometry"/>
                </mxCell>
                <mxCell id="65" value="Registrera försäljning" style="whiteSpace=wrap;strokeWidth=2;" vertex="1" parent="1">
                    <mxGeometry x="457" y="1138" width="213" height="48" as="geometry"/>
                </mxCell>
                <mxCell id="66" value="Visa felmeddelande och be om nytt värde" style="whiteSpace=wrap;strokeWidth=2;" vertex="1" parent="1">
                    <mxGeometry x="720" y="1129" width="254" height="66" as="geometry"/>
                </mxCell>
                <mxCell id="67" value="Hantera produkter" style="whiteSpace=wrap;strokeWidth=2;" vertex="1" parent="1">
                    <mxGeometry x="1939" y="517" width="194" height="48" as="geometry"/>
                </mxCell>
                <mxCell id="68" value="Lägg till produkt" style="whiteSpace=wrap;strokeWidth=2;" vertex="1" parent="1">
                    <mxGeometry x="1177" y="615" width="178" height="48" as="geometry"/>
                </mxCell>
                <mxCell id="69" value="Ange produktinformation" style="whiteSpace=wrap;strokeWidth=2;" vertex="1" parent="1">
                    <mxGeometry x="1114" y="722" width="240" height="48" as="geometry"/>
                </mxCell>
                <mxCell id="70" value="Ange namn" style="whiteSpace=wrap;strokeWidth=2;" vertex="1" parent="1">
                    <mxGeometry x="1164" y="861" width="140" height="48" as="geometry"/>
                </mxCell>
                <mxCell id="71" value="Validera namn" style="whiteSpace=wrap;strokeWidth=2;" vertex="1" parent="1">
                    <mxGeometry x="1152" y="999" width="163" height="48" as="geometry"/>
                </mxCell>
                <mxCell id="72" value="Ange kategori ID" style="whiteSpace=wrap;strokeWidth=2;" vertex="1" parent="1">
                    <mxGeometry x="1027" y="1138" width="179" height="48" as="geometry"/>
                </mxCell>
                <mxCell id="73" value="Visa felmeddelande och be om nytt namn" style="whiteSpace=wrap;strokeWidth=2;" vertex="1" parent="1">
                    <mxGeometry x="1255" y="1129" width="254" height="66" as="geometry"/>
                </mxCell>
                <mxCell id="74" value="Validera kategori ID" style="whiteSpace=wrap;strokeWidth=2;" vertex="1" parent="1">
                    <mxGeometry x="1015" y="1245" width="202" height="48" as="geometry"/>
                </mxCell>
                <mxCell id="75" value="Ange antal" style="whiteSpace=wrap;strokeWidth=2;" vertex="1" parent="1">
                    <mxGeometry x="924" y="1374" width="137" height="48" as="geometry"/>
                </mxCell>
                <mxCell id="76" value="Visa felmeddelande och be om nytt ID" style="whiteSpace=wrap;strokeWidth=2;" vertex="1" parent="1">
                    <mxGeometry x="1112" y="1366" width="254" height="66" as="geometry"/>
                </mxCell>
                <mxCell id="77" value="Validera antal" style="whiteSpace=wrap;strokeWidth=2;" vertex="1" parent="1">
                    <mxGeometry x="913" y="1482" width="160" height="48" as="geometry"/>
                </mxCell>
                <mxCell id="78" value="Ange pris" style="whiteSpace=wrap;strokeWidth=2;" vertex="1" parent="1">
                    <mxGeometry x="809" y="1611" width="127" height="48" as="geometry"/>
                </mxCell>
                <mxCell id="79" value="Visa felmeddelande och be om nytt värde" style="whiteSpace=wrap;strokeWidth=2;" vertex="1" parent="1">
                    <mxGeometry x="986" y="1602" width="254" height="66" as="geometry"/>
                </mxCell>
                <mxCell id="80" value="Validera pris" style="whiteSpace=wrap;strokeWidth=2;" vertex="1" parent="1">
                    <mxGeometry x="798" y="1718" width="150" height="48" as="geometry"/>
                </mxCell>
                <mxCell id="81" value="Spara produkt" style="whiteSpace=wrap;strokeWidth=2;" vertex="1" parent="1">
                    <mxGeometry x="664" y="1848" width="160" height="48" as="geometry"/>
                </mxCell>
                <mxCell id="82" value="Visa felmeddelande och be om nytt värde" style="whiteSpace=wrap;strokeWidth=2;" vertex="1" parent="1">
                    <mxGeometry x="874" y="1839" width="254" height="66" as="geometry"/>
                </mxCell>
                <mxCell id="83" value="Återgå till hantera produkter" style="whiteSpace=wrap;strokeWidth=2;" vertex="1" parent="1">
                    <mxGeometry x="1433" y="714" width="194" height="66" as="geometry"/>
                </mxCell>
                <mxCell id="84" value="Uppdatera produkt" style="whiteSpace=wrap;strokeWidth=2;" vertex="1" parent="1">
                    <mxGeometry x="1666" y="615" width="196" height="48" as="geometry"/>
                </mxCell>
                <mxCell id="85" value="Ange produkt ID" style="whiteSpace=wrap;strokeWidth=2;" vertex="1" parent="1">
                    <mxGeometry x="1676" y="722" width="175" height="48" as="geometry"/>
                </mxCell>
                <mxCell id="86" value="Hämta produkt" style="whiteSpace=wrap;strokeWidth=2;" vertex="1" parent="1">
                    <mxGeometry x="1680" y="861" width="168" height="48" as="geometry"/>
                </mxCell>
                <mxCell id="87" value="Uppdatera information" style="whiteSpace=wrap;strokeWidth=2;" vertex="1" parent="1">
                    <mxGeometry x="1534" y="999" width="224" height="48" as="geometry"/>
                </mxCell>
                <mxCell id="88" value="Visa felmeddelande och be om nytt ID" style="whiteSpace=wrap;strokeWidth=2;" vertex="1" parent="1">
                    <mxGeometry x="1808" y="990" width="254" height="66" as="geometry"/>
                </mxCell>
                <mxCell id="89" value="Spara ändringar" style="whiteSpace=wrap;strokeWidth=2;" vertex="1" parent="1">
                    <mxGeometry x="1559" y="1138" width="174" height="48" as="geometry"/>
                </mxCell>
                <mxCell id="90" value="Ta bort produkt" style="whiteSpace=wrap;strokeWidth=2;" vertex="1" parent="1">
                    <mxGeometry x="2229" y="615" width="172" height="48" as="geometry"/>
                </mxCell>
                <mxCell id="91" value="Ange produkt ID" style="whiteSpace=wrap;strokeWidth=2;" vertex="1" parent="1">
                    <mxGeometry x="2227" y="722" width="175" height="48" as="geometry"/>
                </mxCell>
                <mxCell id="92" value="Bekräfta borttagning" style="whiteSpace=wrap;strokeWidth=2;" vertex="1" parent="1">
                    <mxGeometry x="2210" y="861" width="209" height="48" as="geometry"/>
                </mxCell>
                <mxCell id="93" value="Ta bort produkt" style="whiteSpace=wrap;strokeWidth=2;" vertex="1" parent="1">
                    <mxGeometry x="2112" y="999" width="172" height="48" as="geometry"/>
                </mxCell>
                <mxCell id="94" value="Återgå till hantera produkter" style="whiteSpace=wrap;strokeWidth=2;" vertex="1" parent="1">
                    <mxGeometry x="2464" y="990" width="194" height="66" as="geometry"/>
                </mxCell>
                <mxCell id="95" value="Lista produkter" style="whiteSpace=wrap;strokeWidth=2;" vertex="1" parent="1">
                    <mxGeometry x="2458" y="615" width="170" height="48" as="geometry"/>
                </mxCell>
                <mxCell id="96" value="Visa produktlista" style="whiteSpace=wrap;strokeWidth=2;" vertex="1" parent="1">
                    <mxGeometry x="2453" y="722" width="180" height="48" as="geometry"/>
                </mxCell>
                <mxCell id="97" value="Hantera kategorier" style="whiteSpace=wrap;strokeWidth=2;" vertex="1" parent="1">
                    <mxGeometry x="3092" y="517" width="197" height="48" as="geometry"/>
                </mxCell>
                <mxCell id="98" value="Lägg till kategori" style="whiteSpace=wrap;strokeWidth=2;" vertex="1" parent="1">
                    <mxGeometry x="2714" y="615" width="182" height="48" as="geometry"/>
                </mxCell>
                <mxCell id="99" value="Ange kategoriinformation" style="whiteSpace=wrap;strokeWidth=2;" vertex="1" parent="1">
                    <mxGeometry x="2683" y="722" width="243" height="48" as="geometry"/>
                </mxCell>
                <mxCell id="100" value="Validera och spara" style="whiteSpace=wrap;strokeWidth=2;" vertex="1" parent="1">
                    <mxGeometry x="2709" y="861" width="192" height="48" as="geometry"/>
                </mxCell>
                <mxCell id="101" value="Uppdatera kategori" style="whiteSpace=wrap;strokeWidth=2;" vertex="1" parent="1">
                    <mxGeometry x="2966" y="615" width="199" height="48" as="geometry"/>
                </mxCell>
                <mxCell id="102" value="Ange kategori ID" style="whiteSpace=wrap;strokeWidth=2;" vertex="1" parent="1">
                    <mxGeometry x="2977" y="722" width="179" height="48" as="geometry"/>
                </mxCell>
                <mxCell id="103" value="Hämta kategori" style="whiteSpace=wrap;strokeWidth=2;" vertex="1" parent="1">
                    <mxGeometry x="2980" y="861" width="171" height="48" as="geometry"/>
                </mxCell>
                <mxCell id="105" value="Spara ändringar" style="whiteSpace=wrap;strokeWidth=2;" vertex="1" parent="1">
                    <mxGeometry x="2880" y="1240" width="174" height="48" as="geometry"/>
                </mxCell>
                <mxCell id="106" value="Ta bort kategori" style="whiteSpace=wrap;strokeWidth=2;" vertex="1" parent="1">
                    <mxGeometry x="3228" y="615" width="175" height="48" as="geometry"/>
                </mxCell>
                <mxCell id="107" value="Ange kategori ID" style="whiteSpace=wrap;strokeWidth=2;" vertex="1" parent="1">
                    <mxGeometry x="3226" y="722" width="179" height="48" as="geometry"/>
                </mxCell>
                <mxCell id="108" value="Bekräfta borttagning" style="whiteSpace=wrap;strokeWidth=2;" vertex="1" parent="1">
                    <mxGeometry x="3211" y="861" width="209" height="48" as="geometry"/>
                </mxCell>
                <mxCell id="109" value="Ta bort kategori" style="whiteSpace=wrap;strokeWidth=2;" vertex="1" parent="1">
                    <mxGeometry x="3228" y="999" width="175" height="48" as="geometry"/>
                </mxCell>
                <mxCell id="110" value="Lista kategorier" style="whiteSpace=wrap;strokeWidth=2;" vertex="1" parent="1">
                    <mxGeometry x="3462" y="615" width="174" height="48" as="geometry"/>
                </mxCell>
                <mxCell id="111" value="Visa kategori lista" style="whiteSpace=wrap;strokeWidth=2;" vertex="1" parent="1">
                    <mxGeometry x="3455" y="722" width="188" height="48" as="geometry"/>
                </mxCell>
                <mxCell id="112" value="Avsluta program" style="whiteSpace=wrap;strokeWidth=2;" vertex="1" parent="1">
                    <mxGeometry x="3339" y="517" width="176" height="48" as="geometry"/>
                </mxCell>
                <mxCell id="113" value="" style="curved=1;startArrow=none;endArrow=block;exitX=0.51;exitY=1.01;entryX=0.5;entryY=0.01;rounded=0;" edge="1" parent="1" source="56" target="57">
                    <mxGeometry relative="1" as="geometry">
                        <Array as="points"/>
                    </mxGeometry>
                </mxCell>
                <mxCell id="114" value="" style="curved=1;startArrow=none;endArrow=block;exitX=0;exitY=0.56;entryX=0.5;entryY=0;rounded=0;" edge="1" parent="1" source="57" target="58">
                    <mxGeometry relative="1" as="geometry">
                        <Array as="points">
                            <mxPoint x="607" y="492"/>
                        </Array>
                    </mxGeometry>
                </mxCell>
                <mxCell id="115" value="" style="curved=1;startArrow=none;endArrow=block;exitX=0.22;exitY=1;entryX=0.5;entryY=0;rounded=0;" edge="1" parent="1" source="58" target="59">
                    <mxGeometry relative="1" as="geometry">
                        <Array as="points">
                            <mxPoint x="486" y="590"/>
                        </Array>
                    </mxGeometry>
                </mxCell>
                <mxCell id="116" value="" style="curved=1;startArrow=none;endArrow=block;exitX=0.78;exitY=1;entryX=0.5;entryY=0;rounded=0;" edge="1" parent="1" source="58" target="60">
                    <mxGeometry relative="1" as="geometry">
                        <Array as="points">
                            <mxPoint x="727" y="590"/>
                        </Array>
                    </mxGeometry>
                </mxCell>
                <mxCell id="117" value="" style="curved=1;startArrow=none;endArrow=block;exitX=0.5;exitY=1.01;entryX=0.5;entryY=0.01;rounded=0;" edge="1" parent="1" source="60" target="61">
                    <mxGeometry relative="1" as="geometry">
                        <Array as="points"/>
                    </mxGeometry>
                </mxCell>
                <mxCell id="118" value="Giltig" style="curved=1;startArrow=none;endArrow=block;exitX=0.42;exitY=1.02;entryX=0.5;entryY=0;rounded=0;" edge="1" parent="1" source="61" target="62">
                    <mxGeometry relative="1" as="geometry">
                        <Array as="points">
                            <mxPoint x="684" y="816"/>
                        </Array>
                    </mxGeometry>
                </mxCell>
                <mxCell id="119" value="Ogiltig" style="curved=1;startArrow=none;endArrow=block;exitX=1;exitY=1.01;entryX=0.5;entryY=0;rounded=0;" edge="1" parent="1" source="61" target="63">
                    <mxGeometry relative="1" as="geometry">
                        <Array as="points">
                            <mxPoint x="987" y="816"/>
                        </Array>
                    </mxGeometry>
                </mxCell>
                <mxCell id="120" value="" style="curved=1;startArrow=none;endArrow=block;exitX=0.5;exitY=1;entryX=0.5;entryY=0;rounded=0;" edge="1" parent="1" source="62" target="64">
                    <mxGeometry relative="1" as="geometry">
                        <Array as="points"/>
                    </mxGeometry>
                </mxCell>
                <mxCell id="121" value="Giltig" style="curved=1;startArrow=none;endArrow=block;exitX=0.28;exitY=1.01;entryX=0.5;entryY=-0.01;rounded=0;" edge="1" parent="1" source="64" target="65">
                    <mxGeometry relative="1" as="geometry">
                        <Array as="points">
                            <mxPoint x="564" y="1093"/>
                        </Array>
                    </mxGeometry>
                </mxCell>
                <mxCell id="122" value="Ogiltig" style="curved=1;startArrow=none;endArrow=block;exitX=0.8;exitY=1.01;entryX=0.5;entryY=0;rounded=0;" edge="1" parent="1" source="64" target="66">
                    <mxGeometry relative="1" as="geometry">
                        <Array as="points">
                            <mxPoint x="847" y="1093"/>
                        </Array>
                    </mxGeometry>
                </mxCell>
                <mxCell id="123" value="" style="curved=1;startArrow=none;endArrow=block;exitX=0;exitY=0.69;entryX=0.5;entryY=0;rounded=0;" edge="1" parent="1" source="57" target="67">
                    <mxGeometry relative="1" as="geometry">
                        <Array as="points">
                            <mxPoint x="2036" y="492"/>
                        </Array>
                    </mxGeometry>
                </mxCell>
                <mxCell id="124" value="" style="curved=1;startArrow=none;endArrow=block;exitX=0;exitY=0.63;entryX=0.5;entryY=0;rounded=0;" edge="1" parent="1" source="67" target="68">
                    <mxGeometry relative="1" as="geometry">
                        <Array as="points">
                            <mxPoint x="1266" y="590"/>
                        </Array>
                    </mxGeometry>
                </mxCell>
                <mxCell id="125" value="" style="curved=1;startArrow=none;endArrow=block;exitX=0.41;exitY=1.01;entryX=0.5;entryY=0.01;rounded=0;" edge="1" parent="1" source="68" target="69">
                    <mxGeometry relative="1" as="geometry">
                        <Array as="points">
                            <mxPoint x="1234" y="689"/>
                        </Array>
                    </mxGeometry>
                </mxCell>
                <mxCell id="126" value="" style="curved=1;startArrow=none;endArrow=block;exitX=0.5;exitY=1.02;entryX=0.5;entryY=0;rounded=0;" edge="1" parent="1" source="69" target="70">
                    <mxGeometry relative="1" as="geometry">
                        <Array as="points"/>
                    </mxGeometry>
                </mxCell>
                <mxCell id="127" value="" style="curved=1;startArrow=none;endArrow=block;exitX=0.5;exitY=1;entryX=0.5;entryY=0;rounded=0;" edge="1" parent="1" source="70" target="71">
                    <mxGeometry relative="1" as="geometry">
                        <Array as="points"/>
                    </mxGeometry>
                </mxCell>
                <mxCell id="128" value="Giltig" style="curved=1;startArrow=none;endArrow=block;exitX=0.25;exitY=1.01;entryX=0.5;entryY=-0.01;rounded=0;" edge="1" parent="1" source="71" target="72">
                    <mxGeometry relative="1" as="geometry">
                        <Array as="points">
                            <mxPoint x="1116" y="1093"/>
                        </Array>
                    </mxGeometry>
                </mxCell>
                <mxCell id="129" value="Ogiltig" style="curved=1;startArrow=none;endArrow=block;exitX=0.82;exitY=1.01;entryX=0.5;entryY=0;rounded=0;" edge="1" parent="1" source="71" target="73">
                    <mxGeometry relative="1" as="geometry">
                        <Array as="points">
                            <mxPoint x="1382" y="1093"/>
                        </Array>
                    </mxGeometry>
                </mxCell>
                <mxCell id="130" value="" style="curved=1;startArrow=none;endArrow=block;exitX=0.5;exitY=1;entryX=0.5;entryY=0;rounded=0;" edge="1" parent="1" source="72" target="74">
                    <mxGeometry relative="1" as="geometry">
                        <Array as="points"/>
                    </mxGeometry>
                </mxCell>
                <mxCell id="131" value="Giltig" style="curved=1;startArrow=none;endArrow=block;exitX=0.26;exitY=1;entryX=0.5;entryY=0.01;rounded=0;" edge="1" parent="1" source="74" target="75">
                    <mxGeometry relative="1" as="geometry">
                        <Array as="points">
                            <mxPoint x="993" y="1329"/>
                        </Array>
                    </mxGeometry>
                </mxCell>
                <mxCell id="132" value="Ogiltig" style="curved=1;startArrow=none;endArrow=block;exitX=0.74;exitY=1;entryX=0.5;entryY=-0.01;rounded=0;" edge="1" parent="1" source="74" target="76">
                    <mxGeometry relative="1" as="geometry">
                        <Array as="points">
                            <mxPoint x="1239" y="1329"/>
                        </Array>
                    </mxGeometry>
                </mxCell>
                <mxCell id="133" value="" style="curved=1;startArrow=none;endArrow=block;exitX=0.5;exitY=1.02;entryX=0.5;entryY=-0.01;rounded=0;" edge="1" parent="1" source="75" target="77">
                    <mxGeometry relative="1" as="geometry">
                        <Array as="points"/>
                    </mxGeometry>
                </mxCell>
                <mxCell id="134" value="Giltig" style="curved=1;startArrow=none;endArrow=block;exitX=0.2;exitY=1;entryX=0.5;entryY=0;rounded=0;" edge="1" parent="1" source="77" target="78">
                    <mxGeometry relative="1" as="geometry">
                        <Array as="points">
                            <mxPoint x="873" y="1566"/>
                        </Array>
                    </mxGeometry>
                </mxCell>
                <mxCell id="135" value="Ogiltig" style="curved=1;startArrow=none;endArrow=block;exitX=0.8;exitY=1;entryX=0.5;entryY=0.01;rounded=0;" edge="1" parent="1" source="77" target="79">
                    <mxGeometry relative="1" as="geometry">
                        <Array as="points">
                            <mxPoint x="1113" y="1566"/>
                        </Array>
                    </mxGeometry>
                </mxCell>
                <mxCell id="136" value="" style="curved=1;startArrow=none;endArrow=block;exitX=0.5;exitY=1.01;entryX=0.5;entryY=0.01;rounded=0;" edge="1" parent="1" source="78" target="80">
                    <mxGeometry relative="1" as="geometry">
                        <Array as="points"/>
                    </mxGeometry>
                </mxCell>
                <mxCell id="137" value="Giltig" style="curved=1;startArrow=none;endArrow=block;exitX=0.15;exitY=1.02;entryX=0.5;entryY=0;rounded=0;" edge="1" parent="1" source="80" target="81">
                    <mxGeometry relative="1" as="geometry">
                        <Array as="points">
                            <mxPoint x="744" y="1803"/>
                        </Array>
                    </mxGeometry>
                </mxCell>
                <mxCell id="138" value="Ogiltig" style="curved=1;startArrow=none;endArrow=block;exitX=0.84;exitY=1.02;entryX=0.5;entryY=0;rounded=0;" edge="1" parent="1" source="80" target="82">
                    <mxGeometry relative="1" as="geometry">
                        <Array as="points">
                            <mxPoint x="1001" y="1803"/>
                        </Array>
                    </mxGeometry>
                </mxCell>
                <mxCell id="139" value="" style="curved=1;startArrow=none;endArrow=block;exitX=1;exitY=0.85;entryX=0.5;entryY=-0.01;rounded=0;" edge="1" parent="1" source="68" target="83">
                    <mxGeometry relative="1" as="geometry">
                        <Array as="points">
                            <mxPoint x="1530" y="689"/>
                        </Array>
                    </mxGeometry>
                </mxCell>
                <mxCell id="140" value="" style="curved=1;startArrow=none;endArrow=block;exitX=0;exitY=0.87;entryX=0.5;entryY=0;rounded=0;" edge="1" parent="1" source="67" target="84">
                    <mxGeometry relative="1" as="geometry">
                        <Array as="points">
                            <mxPoint x="1764" y="590"/>
                        </Array>
                    </mxGeometry>
                </mxCell>
                <mxCell id="141" value="" style="curved=1;startArrow=none;endArrow=block;exitX=0.5;exitY=1.01;entryX=0.5;entryY=0.01;rounded=0;" edge="1" parent="1" source="84" target="85">
                    <mxGeometry relative="1" as="geometry">
                        <Array as="points"/>
                    </mxGeometry>
                </mxCell>
                <mxCell id="142" value="" style="curved=1;startArrow=none;endArrow=block;exitX=0.5;exitY=1.02;entryX=0.5;entryY=0;rounded=0;" edge="1" parent="1" source="85" target="86">
                    <mxGeometry relative="1" as="geometry">
                        <Array as="points"/>
                    </mxGeometry>
                </mxCell>
                <mxCell id="143" value="Giltig" style="curved=1;startArrow=none;endArrow=block;exitX=0.26;exitY=1;entryX=0.5;entryY=0;rounded=0;" edge="1" parent="1" source="86" target="87">
                    <mxGeometry relative="1" as="geometry">
                        <Array as="points">
                            <mxPoint x="1646" y="954"/>
                        </Array>
                    </mxGeometry>
                </mxCell>
                <mxCell id="144" value="Ogiltig" style="curved=1;startArrow=none;endArrow=block;exitX=0.86;exitY=1;entryX=0.5;entryY=0.01;rounded=0;" edge="1" parent="1" source="86" target="88">
                    <mxGeometry relative="1" as="geometry">
                        <Array as="points">
                            <mxPoint x="1935" y="954"/>
                        </Array>
                    </mxGeometry>
                </mxCell>
                <mxCell id="145" value="" style="curved=1;startArrow=none;endArrow=block;exitX=0.5;exitY=1.01;entryX=0.5;entryY=-0.01;rounded=0;" edge="1" parent="1" source="87" target="89">
                    <mxGeometry relative="1" as="geometry">
                        <Array as="points"/>
                    </mxGeometry>
                </mxCell>
                <mxCell id="146" value="" style="curved=1;startArrow=none;endArrow=block;exitX=1;exitY=0.86;entryX=0.5;entryY=0;rounded=0;" edge="1" parent="1" source="67" target="90">
                    <mxGeometry relative="1" as="geometry">
                        <Array as="points">
                            <mxPoint x="2315" y="590"/>
                        </Array>
                    </mxGeometry>
                </mxCell>
                <mxCell id="147" value="" style="curved=1;startArrow=none;endArrow=block;exitX=0.5;exitY=1.01;entryX=0.5;entryY=0.01;rounded=0;" edge="1" parent="1" source="90" target="91">
                    <mxGeometry relative="1" as="geometry">
                        <Array as="points"/>
                    </mxGeometry>
                </mxCell>
                <mxCell id="148" value="" style="curved=1;startArrow=none;endArrow=block;exitX=0.5;exitY=1.02;entryX=0.5;entryY=0;rounded=0;" edge="1" parent="1" source="91" target="92">
                    <mxGeometry relative="1" as="geometry">
                        <Array as="points"/>
                    </mxGeometry>
                </mxCell>
                <mxCell id="149" value="Ja" style="curved=1;startArrow=none;endArrow=block;exitX=0.31;exitY=1;entryX=0.5;entryY=0;rounded=0;" edge="1" parent="1" source="92" target="93">
                    <mxGeometry relative="1" as="geometry">
                        <Array as="points">
                            <mxPoint x="2198" y="954"/>
                        </Array>
                    </mxGeometry>
                </mxCell>
                <mxCell id="150" value="Nej" style="curved=1;startArrow=none;endArrow=block;exitX=0.91;exitY=1;entryX=0.5;entryY=0.01;rounded=0;" edge="1" parent="1" source="92" target="94">
                    <mxGeometry relative="1" as="geometry">
                        <Array as="points">
                            <mxPoint x="2561" y="954"/>
                        </Array>
                    </mxGeometry>
                </mxCell>
                <mxCell id="151" value="" style="curved=1;startArrow=none;endArrow=block;exitX=1;exitY=0.7;entryX=0.5;entryY=0;rounded=0;" edge="1" parent="1" source="67" target="95">
                    <mxGeometry relative="1" as="geometry">
                        <Array as="points">
                            <mxPoint x="2543" y="590"/>
                        </Array>
                    </mxGeometry>
                </mxCell>
                <mxCell id="152" value="" style="curved=1;startArrow=none;endArrow=block;exitX=0.5;exitY=1.01;entryX=0.5;entryY=0.01;rounded=0;" edge="1" parent="1" source="95" target="96">
                    <mxGeometry relative="1" as="geometry">
                        <Array as="points"/>
                    </mxGeometry>
                </mxCell>
                <mxCell id="153" value="" style="curved=1;startArrow=none;endArrow=block;exitX=1;exitY=0.65;entryX=0.5;entryY=0;rounded=0;" edge="1" parent="1" source="57" target="97">
                    <mxGeometry relative="1" as="geometry">
                        <Array as="points">
                            <mxPoint x="3191" y="492"/>
                        </Array>
                    </mxGeometry>
                </mxCell>
                <mxCell id="154" value="" style="curved=1;startArrow=none;endArrow=block;exitX=0;exitY=0.76;entryX=0.5;entryY=0;rounded=0;" edge="1" parent="1" source="97" target="98">
                    <mxGeometry relative="1" as="geometry">
                        <Array as="points">
                            <mxPoint x="2805" y="590"/>
                        </Array>
                    </mxGeometry>
                </mxCell>
                <mxCell id="155" value="" style="curved=1;startArrow=none;endArrow=block;exitX=0.5;exitY=1.01;entryX=0.5;entryY=0.01;rounded=0;" edge="1" parent="1" source="98" target="99">
                    <mxGeometry relative="1" as="geometry">
                        <Array as="points"/>
                    </mxGeometry>
                </mxCell>
                <mxCell id="156" value="" style="curved=1;startArrow=none;endArrow=block;exitX=0.5;exitY=1.02;entryX=0.5;entryY=0;rounded=0;" edge="1" parent="1" source="99" target="100">
                    <mxGeometry relative="1" as="geometry">
                        <Array as="points"/>
                    </mxGeometry>
                </mxCell>
                <mxCell id="157" value="" style="curved=1;startArrow=none;endArrow=block;exitX=0.19;exitY=1;entryX=0.5;entryY=0;rounded=0;" edge="1" parent="1" source="97" target="101">
                    <mxGeometry relative="1" as="geometry">
                        <Array as="points">
                            <mxPoint x="3066" y="590"/>
                        </Array>
                    </mxGeometry>
                </mxCell>
                <mxCell id="158" value="" style="curved=1;startArrow=none;endArrow=block;exitX=0.5;exitY=1.01;entryX=0.5;entryY=0.01;rounded=0;" edge="1" parent="1" source="101" target="102">
                    <mxGeometry relative="1" as="geometry">
                        <Array as="points"/>
                    </mxGeometry>
                </mxCell>
                <mxCell id="159" value="" style="curved=1;startArrow=none;endArrow=block;exitX=0.5;exitY=1.02;entryX=0.5;entryY=0;rounded=0;" edge="1" parent="1" source="102" target="103">
                    <mxGeometry relative="1" as="geometry">
                        <Array as="points"/>
                    </mxGeometry>
                </mxCell>
                <mxCell id="161" value="" style="curved=1;startArrow=none;endArrow=block;entryX=0.5;entryY=-0.01;rounded=0;" edge="1" parent="1" source="169" target="105">
                    <mxGeometry relative="1" as="geometry">
                        <Array as="points"/>
                        <mxPoint x="3066.5" y="1288" as="sourcePoint"/>
                    </mxGeometry>
                </mxCell>
                <mxCell id="162" value="" style="curved=1;startArrow=none;endArrow=block;exitX=0.81;exitY=1;entryX=0.5;entryY=0;rounded=0;" edge="1" parent="1" source="97" target="106">
                    <mxGeometry relative="1" as="geometry">
                        <Array as="points">
                            <mxPoint x="3315" y="590"/>
                        </Array>
                    </mxGeometry>
                </mxCell>
                <mxCell id="163" value="" style="curved=1;startArrow=none;endArrow=block;exitX=0.5;exitY=1.01;entryX=0.5;entryY=0.01;rounded=0;" edge="1" parent="1" source="106" target="107">
                    <mxGeometry relative="1" as="geometry">
                        <Array as="points"/>
                    </mxGeometry>
                </mxCell>
                <mxCell id="164" value="" style="curved=1;startArrow=none;endArrow=block;exitX=0.5;exitY=1.02;entryX=0.5;entryY=0;rounded=0;" edge="1" parent="1" source="107" target="108">
                    <mxGeometry relative="1" as="geometry">
                        <Array as="points"/>
                    </mxGeometry>
                </mxCell>
                <mxCell id="165" value="" style="curved=1;startArrow=none;endArrow=block;exitX=0.5;exitY=1;entryX=0.5;entryY=0;rounded=0;" edge="1" parent="1" source="108" target="109">
                    <mxGeometry relative="1" as="geometry">
                        <Array as="points"/>
                    </mxGeometry>
                </mxCell>
                <mxCell id="166" value="" style="curved=1;startArrow=none;endArrow=block;exitX=1;exitY=0.78;entryX=0.5;entryY=0;rounded=0;" edge="1" parent="1" source="97" target="110">
                    <mxGeometry relative="1" as="geometry">
                        <Array as="points">
                            <mxPoint x="3549" y="590"/>
                        </Array>
                    </mxGeometry>
                </mxCell>
                <mxCell id="167" value="" style="curved=1;startArrow=none;endArrow=block;exitX=0.5;exitY=1.01;entryX=0.5;entryY=0.01;rounded=0;" edge="1" parent="1" source="110" target="111">
                    <mxGeometry relative="1" as="geometry">
                        <Array as="points"/>
                    </mxGeometry>
                </mxCell>
                <mxCell id="168" value="" style="curved=1;startArrow=none;endArrow=block;exitX=1;exitY=0.61;entryX=0.5;entryY=0;rounded=0;" edge="1" parent="1" source="57" target="112">
                    <mxGeometry relative="1" as="geometry">
                        <Array as="points">
                            <mxPoint x="3427" y="492"/>
                        </Array>
                    </mxGeometry>
                </mxCell>
                <mxCell id="169" value="Uppdatera information" style="whiteSpace=wrap;strokeWidth=2;" vertex="1" parent="1">
                    <mxGeometry x="2761" y="1089" width="224" height="48" as="geometry"/>
                </mxCell>
                <mxCell id="170" value="Visa felmeddelande och be om nytt ID" style="whiteSpace=wrap;strokeWidth=2;" vertex="1" parent="1">
                    <mxGeometry x="3035" y="1080" width="254" height="66" as="geometry"/>
                </mxCell>
                <mxCell id="171" value="Giltig" style="curved=1;startArrow=none;endArrow=block;rounded=0;" edge="1" parent="1" target="169" source="103">
                    <mxGeometry relative="1" as="geometry">
                        <Array as="points">
                            <mxPoint x="2873" y="1044"/>
                        </Array>
                        <mxPoint x="2950.6800000000003" y="999" as="sourcePoint"/>
                    </mxGeometry>
                </mxCell>
                <mxCell id="172" value="Ogiltig" style="curved=1;startArrow=none;endArrow=block;entryX=0.5;entryY=0.01;rounded=0;" edge="1" parent="1" target="170" source="103">
                    <mxGeometry relative="1" as="geometry">
                        <Array as="points">
                            <mxPoint x="3162" y="1044"/>
                        </Array>
                        <mxPoint x="3051.480000000001" y="999" as="sourcePoint"/>
                    </mxGeometry>
                </mxCell>
            </root>
        </mxGraphModel>
    </diagram>
</mxfile>